<svg width="124" height="42" viewBox="0 0 124 42" fill="none" xmlns="http://www.w3.org/2000/svg">
<path d="M10.1801 40.8092C6.64257 40.8092 4.08769 39.9324 2.51545 38.1788C0.943215 36.4251 0.157097 33.5981 0.157097 29.6977V26.8881C0.157097 26.3358 0.604812 25.8881 1.1571 25.8881H6.82174C7.37403 25.8881 7.82174 26.3358 7.82174 26.8881V30.7409C7.82174 32.6759 8.44157 33.6435 9.68122 33.6435C10.3766 33.6435 10.8604 33.4469 11.1325 33.0539C11.4046 32.6306 11.5407 31.9352 11.5407 30.9676C11.5407 29.6978 11.3895 28.6546 11.0872 27.8383C10.7848 26.9917 10.3917 26.2963 9.90798 25.752C9.45445 25.1776 8.62298 24.3007 7.41357 23.1216L4.05745 19.7655C1.45721 17.2257 0.157097 14.4138 0.157097 11.3298C0.157097 8.00393 0.912979 5.47928 2.42474 3.75587C3.96674 2.00222 6.20416 1.12539 9.13698 1.12539C12.6443 1.12539 15.1689 2.06269 16.7109 3.93728C18.12 5.6227 18.8853 8.19183 19.0067 11.6447C19.0262 12.1966 18.5762 12.645 18.0239 12.645H12.0704C11.5247 12.645 11.0797 12.2076 11.0705 11.662L11.0418 9.96922C11.0418 9.45522 10.8906 9.04704 10.5883 8.74469C10.3162 8.44234 9.9231 8.29116 9.4091 8.29116C8.80439 8.29116 8.35086 8.45745 8.04851 8.79004C7.74616 9.12263 7.59498 9.57616 7.59498 10.1506C7.59498 11.4205 8.32063 12.7357 9.77192 14.0963L14.3072 18.4502C15.3655 19.4782 16.2423 20.4609 16.9377 21.3982C17.6331 22.3052 18.1925 23.3937 18.6157 24.6636C19.039 25.9032 19.2507 27.3848 19.2507 29.1082C19.2507 32.948 18.5402 35.8658 17.1191 37.8613C15.7283 39.8266 13.4153 40.8092 10.1801 40.8092Z" fill="#13004A"/>
<path d="M22.833 40.4464C22.2807 40.4464 21.833 39.9987 21.833 39.4464V2.48822C21.833 1.93593 22.2807 1.48822 22.833 1.48822H28.5883C29.1406 1.48822 29.5883 1.93593 29.5883 2.48822V16.4116C29.5883 16.9639 30.036 17.4116 30.5883 17.4116H32.2619C32.8142 17.4116 33.2619 16.9639 33.2619 16.4116V2.48822C33.2619 1.93594 33.7096 1.48822 34.2619 1.48822H40.0173C40.5696 1.48822 41.0173 1.93593 41.0173 2.48822V39.4464C41.0173 39.9987 40.5696 40.4464 40.0173 40.4464H34.2619C33.7096 40.4464 33.2619 39.9987 33.2619 39.4464V25.7587C33.2619 25.2065 32.8142 24.7587 32.2619 24.7587H30.5883C30.036 24.7587 29.5883 25.2065 29.5883 25.7587V39.4464C29.5883 39.9987 29.1406 40.4464 28.5883 40.4464H22.833Z" fill="#13004A"/>
<path d="M45.1023 40.4464C44.55 40.4464 44.1023 39.9987 44.1023 39.4464V20.9673V2.48822C44.1023 1.93593 44.55 1.48822 45.1023 1.48822H50.6309C51.1832 1.48822 51.6309 1.93593 51.6309 2.48822V39.4464C51.6309 39.9987 51.1832 40.4464 50.6309 40.4464H45.1023Z" fill="#13004A"/>
<path d="M55.7404 40.4464C55.1881 40.4464 54.7404 39.9987 54.7404 39.4464V2.48822C54.7404 1.93593 55.1881 1.48822 55.7404 1.48822H61.9418C62.4213 1.48822 62.8333 1.82858 62.9238 2.29946L65.7562 17.0348C65.8248 17.392 66.3508 17.3419 66.3508 16.9782V2.48822C66.3508 1.93593 66.7985 1.48822 67.3508 1.48822H72.8794C73.4317 1.48822 73.8794 1.93593 73.8794 2.48822V39.4464C73.8794 39.9987 73.4317 40.4464 72.8794 40.4464H67.0799C66.6032 40.4464 66.1928 40.1099 66.0993 39.6425L62.9539 23.9155C62.8828 23.5602 62.3597 23.612 62.3597 23.9743V39.4464C62.3597 39.9987 61.912 40.4464 61.3597 40.4464H55.7404Z" fill="#13004A"/>
<path d="M78.3283 40.4464C77.776 40.4464 77.3283 39.9987 77.3283 39.4464V2.48822C77.3283 1.93593 77.776 1.48822 78.3283 1.48822H91.9297C92.482 1.48822 92.9297 1.93593 92.9297 2.48822V8.01681C92.9297 8.56909 92.482 9.01681 91.9297 9.01681H86.2651C85.7128 9.01681 85.2651 9.46452 85.2651 10.0168V16.5907C85.2651 17.143 85.7128 17.5907 86.2651 17.5907H91.6123C92.1645 17.5907 92.6123 18.0385 92.6123 18.5907V23.9379C92.6123 24.4902 92.1645 24.9379 91.6123 24.9379H86.2651C85.7128 24.9379 85.2651 25.3856 85.2651 25.9379V31.8725C85.2651 32.4247 85.7128 32.8725 86.2651 32.8725H92.4286C92.9809 32.8725 93.4286 33.3202 93.4286 33.8725V39.4464C93.4286 39.9987 92.9809 40.4464 92.4286 40.4464H78.3283Z" fill="#13004A"/>
<path d="M101.495 1.27341L101.554 15.3005V26.7857L101.495 40.8128C101.49 42.012 103.175 42.2813 103.544 41.1402L107.163 29.9455C107.718 28.228 109.601 27.3273 111.286 27.9723L121.692 31.9532C122.808 32.38 123.657 30.9098 122.729 30.1571L114.514 23.4891C112.961 22.2283 112.961 19.8578 114.514 18.5971L122.729 11.9291C123.657 11.1764 122.808 9.7062 121.692 10.133L111.286 14.1139C109.601 14.7589 107.718 13.8582 107.163 12.1407L103.544 0.945954C103.175 -0.19517 101.49 0.0741433 101.495 1.27341Z" fill="#13004A"/>
</svg>
