<svg width="838" height="300" viewBox="0 0 838 300" fill="none" xmlns="http://www.w3.org/2000/svg">
<rect width="838" height="300" rx="8" fill="#FAC8F2"/>
<path d="M322.627 187.016C316.003 187.016 311.218 185.374 308.274 182.09C305.329 178.806 303.857 173.512 303.857 166.207V160.946C303.857 159.911 304.696 159.073 305.73 159.073H316.338C317.372 159.073 318.211 159.911 318.211 160.946V168.161C318.211 171.785 319.372 173.597 321.693 173.597C322.996 173.597 323.901 173.229 324.411 172.493C324.921 171.7 325.175 170.397 325.175 168.586C325.175 166.207 324.892 164.254 324.326 162.725C323.76 161.14 323.024 159.837 322.118 158.818C321.269 157.742 319.711 156.1 317.447 153.892L311.161 147.607C306.292 142.851 303.857 137.585 303.857 131.809C303.857 125.581 305.273 120.853 308.104 117.625C310.992 114.341 315.182 112.699 320.674 112.699C327.242 112.699 331.97 114.454 334.858 117.965C337.497 121.121 338.93 125.933 339.157 132.399C339.194 133.433 338.351 134.272 337.317 134.272H326.167C325.146 134.272 324.312 133.453 324.295 132.431L324.241 129.261C324.241 128.299 323.958 127.534 323.392 126.968C322.882 126.402 322.146 126.119 321.184 126.119C320.051 126.119 319.202 126.43 318.636 127.053C318.069 127.676 317.786 128.525 317.786 129.601C317.786 131.979 319.145 134.442 321.863 136.99L330.356 145.144C332.338 147.069 333.98 148.909 335.283 150.665C336.585 152.363 337.632 154.402 338.425 156.78C339.218 159.101 339.614 161.876 339.614 165.103C339.614 172.294 338.284 177.758 335.622 181.496C333.018 185.176 328.686 187.016 322.627 187.016Z" fill="#13004A"/>
<path d="M346.323 186.337C345.289 186.337 344.45 185.498 344.45 184.464V115.251C344.45 114.217 345.289 113.379 346.323 113.379H357.101C358.135 113.379 358.974 114.217 358.974 115.251V141.326C358.974 142.36 359.812 143.199 360.847 143.199H363.981C365.015 143.199 365.854 142.36 365.854 141.326V115.251C365.854 114.217 366.692 113.379 367.726 113.379H378.504C379.539 113.379 380.377 114.217 380.377 115.251V184.464C380.377 185.498 379.539 186.337 378.504 186.337H367.726C366.692 186.337 365.854 185.498 365.854 184.464V158.831C365.854 157.796 365.015 156.958 363.981 156.958H360.847C359.812 156.958 358.974 157.796 358.974 158.831V184.464C358.974 185.498 358.135 186.337 357.101 186.337H346.323Z" fill="#13004A"/>
<path d="M388.027 186.337C386.993 186.337 386.155 185.498 386.155 184.464V149.858V115.251C386.155 114.217 386.993 113.379 388.027 113.379H398.381C399.415 113.379 400.254 114.217 400.254 115.251V184.464C400.254 185.498 399.415 186.337 398.381 186.337H388.027Z" fill="#13004A"/>
<path d="M407.95 186.337C406.915 186.337 406.077 185.498 406.077 184.464V115.251C406.077 114.217 406.915 113.379 407.95 113.379H419.563C420.461 113.379 421.233 114.016 421.402 114.898L426.707 142.493C426.835 143.162 427.82 143.068 427.82 142.387V115.251C427.82 114.217 428.659 113.379 429.693 113.379H440.046C441.081 113.379 441.919 114.217 441.919 115.251V184.464C441.919 185.498 441.081 186.337 440.046 186.337H429.185C428.293 186.337 427.524 185.707 427.349 184.831L421.459 155.379C421.326 154.713 420.346 154.81 420.346 155.489V184.464C420.346 185.498 419.507 186.337 418.473 186.337H407.95Z" fill="#13004A"/>
<path d="M450.251 186.337C449.217 186.337 448.378 185.498 448.378 184.464V115.251C448.378 114.217 449.217 113.379 450.251 113.379H475.723C476.757 113.379 477.595 114.217 477.595 115.251V125.605C477.595 126.639 476.757 127.478 475.723 127.478H465.114C464.08 127.478 463.241 128.316 463.241 129.35V141.662C463.241 142.696 464.08 143.534 465.114 143.534H475.128C476.162 143.534 477.001 144.373 477.001 145.407V155.421C477.001 156.455 476.162 157.294 475.128 157.294H465.114C464.08 157.294 463.241 158.132 463.241 159.166V170.28C463.241 171.314 464.08 172.153 465.114 172.153H476.657C477.691 172.153 478.53 172.991 478.53 174.026V184.464C478.53 185.498 477.691 186.337 476.657 186.337H450.251Z" fill="#13004A"/>
<path d="M493.635 112.977L493.746 139.246V160.754L493.635 187.023C493.626 189.269 496.782 189.774 497.473 187.637L504.251 166.672C505.291 163.455 508.815 161.769 511.972 162.976L531.46 170.432C533.549 171.231 535.138 168.478 533.402 167.068L518.017 154.581C515.108 152.22 515.108 147.78 518.017 145.419L533.402 132.932C535.138 131.522 533.549 128.769 531.46 129.568L511.972 137.024C508.815 138.231 505.291 136.545 504.251 133.328L497.473 112.363C496.782 110.226 493.626 110.731 493.635 112.977Z" fill="#13004A"/>
</svg>
